<?xml version="1.0" encoding="UTF-8" standalone="no"?>
<svg width="206px" height="95px" viewBox="0 0 206 95" version="1.1" xmlns="http://www.w3.org/2000/svg" xmlns:xlink="http://www.w3.org/1999/xlink" xmlns:sketch="http://www.bohemiancoding.com/sketch/ns">
    <!-- Generator: Sketch 3.1.1 (8761) - http://www.bohemiancoding.com/sketch -->
    <title>App@2x</title>
    <desc>Created with Sketch.</desc>
    <defs>
        <path d="M112,0.465820312 L112.963623,4.38427734 C112.963623,4.38427734 112.612793,14.3653482 112.612793,16.4360352 C112.612793,34.2128092 112,100 112,100 L0.282226519,100 L0.605224596,4.38427734 L112,0.465820312 Z M182.533447,4 L183.76416,8.33740234 L183.76416,14.7592773 L183.76416,71 L224,71 L224,4 L182.533447,4 Z" id="path-1"></path>
    </defs>
    <g id="Welcome" stroke="none" stroke-width="1" fill="none" fill-rule="evenodd" sketch:type="MSPage">
        <g id="Index--Mobile" sketch:type="MSArtboardGroup" transform="translate(-55.000000, -213.000000)">
            <g id="Hero-Unit" sketch:type="MSLayerGroup" transform="translate(0.000000, 76.000000)">
                <g id="Outlines" transform="translate(48.000000, 129.000000)">
                    <g id="App" transform="translate(0.000000, 3.000000)">
                        <mask id="mask-2" sketch:name="Mask" fill="white">
                            <use xlink:href="#path-1"></use>
                        </mask>
                        <use id="Mask" sketch:type="MSShapeGroup" xlink:href="#path-1"></use>
                        <g id="Mac-Window" mask="url(#mask-2)" stroke="#FFFFFF" stroke-width="0.5" sketch:type="MSShapeGroup">
                            <g transform="translate(7.000000, 5.000000)">
                                <circle id="Oval-1" cx="6" cy="6" r="2"></circle>
                                <circle id="Oval-1" cx="13" cy="6" r="2"></circle>
                                <circle id="Oval-1" cx="20" cy="6" r="2"></circle>
                                <rect id="Rectangle-53" x="0" y="0" width="206" height="101" rx="2"></rect>
                                <path d="M0.5,10.25 L205.560974,10.25" id="Path-19"></path>
                            </g>
                        </g>
                    </g>
                </g>
            </g>
        </g>
    </g>
</svg>