<?xml version="1.0" encoding="UTF-8" standalone="no"?>
<svg width="31px" height="24px" viewBox="0 0 31 24" version="1.1" xmlns="http://www.w3.org/2000/svg" xmlns:xlink="http://www.w3.org/1999/xlink" xmlns:sketch="http://www.bohemiancoding.com/sketch/ns">
    <!-- Generator: Sketch 3.1.1 (8761) - http://www.bohemiancoding.com/sketch -->
    <title>contact--icon</title>
    <desc>Created with Sketch.</desc>
    <defs></defs>
    <g id="Welcome" stroke="none" stroke-width="1" fill="none" fill-rule="evenodd" sketch:type="MSPage">
        <g id="Index--Mobile" sketch:type="MSArtboardGroup" transform="translate(-270.000000, -29.000000)">
            <g id="Header" sketch:type="MSLayerGroup">
                <g id="contact--icon" transform="translate(271.000000, 30.000000)" sketch:type="MSShapeGroup">
                    <g id="Group" transform="translate(3.741935, 3.666667)" fill="#4A4A4A">
                        <path d="M6.7016473,6.62474691 C6.62584864,6.60123735 6.15537418,6.39955006 6.45072759,5.55320585 L6.44419322,5.55320585 C7.21263484,4.80461192 7.70140553,4.00776153 7.70140553,2.8223847 C7.70140553,0.997300337 6.63499675,0 5.14646784,0 C3.65663205,0 2.57584767,0.998537683 2.57584767,2.8223847 C2.57584767,4.01271091 3.09336957,4.81327334 3.86573181,5.56062992 C4.16500584,6.3079865 3.62657396,6.58515186 3.51418284,6.62474691 C1.95638963,7.15804274 0,7.93262092 0,8.8928009 L0,9.39392576 C0,10.7030371 2.68039755,11 5.15953657,11 C7.64259622,11 10.2903219,10.7030371 10.2903219,9.39392576 L10.2903219,8.8928009 C10.2916288,7.90292463 8.33654605,7.13700787 6.7016473,6.62474691 L6.7016473,6.62474691 Z" id="Shape"></path>
                    </g>
                    <path d="M25.375,0 L3.625,0 C1.624,0 0,1.64144444 0,3.66666667 L0,18.3333333 C0,20.3573333 1.624,22 3.625,22 L6.04166667,22 L6.04166667,19.5555556 L9.66666667,19.5555556 L9.66666667,22 L19.3333333,22 L19.3333333,19.5555556 L22.9583333,19.5555556 L22.9583333,22 L25.375,22 C27.376,22 29,20.3573333 29,18.3333333 L29,3.66666667 C29,1.64144444 27.376,0 25.375,0 L25.375,0 Z" id="Shape" stroke="#4A4A4A" stroke-width="2"></path>
                    <g id="Group" transform="translate(15.903226, 3.666667)" fill="#4A4A4A">
                        <path d="M10.2903226,5.38162664 C10.2903226,5.95729497 10.2069905,6.5541459 10.0403263,7.17342546 C9.87485259,7.79270503 9.67247466,8.2288174 9.43319252,8.61384232 L6.3558575,8.61384232 L6.26181129,8.1901903 C6.15228911,8.26619846 6.0439574,8.33722247 5.93919706,8.40450838 C5.83086534,8.47179429 5.71300996,8.52911192 5.58205953,8.57396919 C5.43444269,8.62879474 5.29873043,8.66866787 5.17135138,8.69483462 C5.04635324,8.71975532 4.87254631,8.73221568 4.65469242,8.73221568 C4.33445911,8.73221568 4.0368445,8.65994563 3.75946769,8.5178976 C3.48209088,8.37584957 3.24280874,8.17025374 3.04162126,7.9011101 C2.84281471,7.64068872 2.68686465,7.30675125 2.57139019,6.90178976 C2.45472526,6.49807431 2.39758326,6.0569778 2.39758326,5.58223833 C2.39758326,5.09503851 2.47020122,4.65269597 2.61305623,4.25396466 C2.75591124,3.85647938 2.94638459,3.51132759 3.18566673,3.22100136 C3.41185383,2.95684187 3.68089743,2.74626189 3.98922616,2.59175351 C4.29874535,2.43599909 4.62135959,2.3587449 4.95706886,2.3587449 C5.224922,2.3587449 5.46539461,2.41232442 5.67610575,2.52197553 C5.88562643,2.63162664 6.04752877,2.74376982 6.16062232,2.85715904 L6.16062232,2.47338015 L7.55345867,2.46714998 L7.55345867,7.55471228 L8.49868266,7.55471228 C8.62129988,7.2768464 8.72129838,6.95163117 8.79748772,6.57283643 C8.87486752,6.19404169 8.91415265,5.8102628 8.91415265,5.42025374 C8.91415265,4.73119619 8.82367781,4.12936112 8.63796629,3.61225646 C8.45344524,3.09639783 8.19511576,2.66402356 7.86297786,2.3163797 C7.52726859,1.96250566 7.13441731,1.70208428 6.68204311,1.53137744 C6.22966891,1.36067059 5.74158096,1.27718623 5.21777925,1.27718623 C4.72016763,1.27718623 4.25112702,1.37063888 3.80827648,1.56128228 C3.36661641,1.74943362 2.95590826,2.03103761 2.58210431,2.40484821 C2.22496679,2.76619846 1.93925677,3.20978704 1.72140288,3.73935206 C1.50473944,4.26891708 1.39759818,4.85455369 1.39759818,5.49626189 C1.39759818,6.1803353 1.49997761,6.78840054 1.70473646,7.32294971 C1.90830485,7.85625283 2.18687212,8.30357952 2.54400964,8.66368373 C2.88924258,9.02004984 3.29161753,9.29043951 3.74994402,9.47236067 C4.20708006,9.65552787 4.68564434,9.74648845 5.18682734,9.74648845 C5.53920303,9.74648845 5.92134018,9.71533756 6.33561971,9.6530358 C6.7510897,9.58948799 7.13203639,9.50600362 7.48084071,9.40009062 L7.48084071,10.7420707 C7.09870356,10.8292932 6.72966145,10.895333 6.37490484,10.9364522 C6.01776731,10.9788174 5.62134466,11 5.17968458,11 C4.43564807,11 3.74518219,10.8666742 3.10828693,10.6000227 C2.4737726,10.3333711 1.92497126,9.95831445 1.46783523,9.47609878 C1.00474691,8.98889896 0.645228464,8.40700045 0.386898986,7.72541912 C0.128569509,7.04632986 0,6.29746262 0,5.48504758 C0,4.71250566 0.134521801,3.99229724 0.403565404,3.32566833 C0.672609007,2.65654735 1.04165112,2.07464884 1.51307265,1.57498867 C1.97973235,1.08280471 2.5309146,0.699025827 3.17138123,0.41991391 C3.80946694,0.139555958 4.4892187,0 5.21301742,0 C5.93205431,0 6.60109194,0.129587676 7.22251123,0.390009062 C7.84393053,0.649184413 8.38082728,1.0155188 8.83082056,1.48652016 C9.28914705,1.95627549 9.64747503,2.51948346 9.90580451,3.17614409 C10.1605626,3.83280471 10.2903226,4.56796556 10.2903226,5.38162664 L10.2903226,5.38162664 Z M5.61290323,6.86250264 L5.61290323,3.90033819 C5.46859986,3.81896005 5.33723404,3.75850772 5.21582018,3.72246882 C5.09341112,3.68642993 4.95607412,3.66666667 4.80181881,3.66666667 C4.46146191,3.66666667 4.19873027,3.83523568 4.01660947,4.17237371 C3.83349348,4.50951173 3.74193548,4.95592898 3.74193548,5.51162545 C3.74193548,6.12544917 3.81956074,6.58349186 3.97182567,6.88342845 C4.1240906,7.18336504 4.37487989,7.33333333 4.72319835,7.33333333 C4.90432395,7.33333333 5.06455045,7.29380681 5.19989705,7.21242866 C5.33424846,7.13105052 5.47158545,7.01479603 5.61290323,6.86250264 L5.61290323,6.86250264 Z" id="Shape"></path>
                    </g>
                </g>
            </g>
        </g>
    </g>
</svg>