<?xml version="1.0" encoding="UTF-8" standalone="no"?>
<svg width="55px" height="55px" viewBox="0 0 55 55" version="1.1" xmlns="http://www.w3.org/2000/svg" xmlns:xlink="http://www.w3.org/1999/xlink" xmlns:sketch="http://www.bohemiancoding.com/sketch/ns">
    <!-- Generator: Sketch 3.1.1 (8761) - http://www.bohemiancoding.com/sketch -->
    <title>design--icon</title>
    <desc>Created with Sketch.</desc>
    <defs></defs>
    <g id="Welcome" stroke="none" stroke-width="1" fill="none" fill-rule="evenodd" sketch:type="MSPage">
        <g id="Portfolio-Single--Mobile" sketch:type="MSArtboardGroup" transform="translate(-80.000000, -402.000000)">
            <g id="Details" sketch:type="MSLayerGroup" transform="translate(0.000000, 316.000000)">
                <g id="Stats" transform="translate(20.000000, 87.000000)" sketch:type="MSShapeGroup">
                    <g id="Design">
                        <g id="design--icon" transform="translate(62.000000, 1.000000)">
                            <path d="M17.4408125,26.4807692 L0,8.82067588 L8.71006306,0 L26.4807692,17.9952371" id="Shape" stroke="#393939" stroke-width="2"></path>
                            <path d="M34.4611245,25.5 L51,42.038149 L42.0388755,51 L25.5,34.4607309" id="Shape" stroke="#393939" stroke-width="2"></path>
                            <path d="M48.0576923,9.0778593 L9.36545047,47.7699017 L0.980769231,50.0192308 L3.23004478,41.6343501 L41.921167,2.94230769" id="Shape" stroke="#393939" stroke-width="2"></path>
                            <path d="M48.5840536,9.80767681 C48.5786849,9.81197195 49.4688268,8.92180482 49.4688268,8.92180482 C51.510033,6.880541 51.510033,3.57113801 49.4709744,1.53094797 C47.4276207,-0.511389633 44.119385,-0.509242065 42.0781788,1.53094797 C42.0781788,1.53094797 41.1869631,2.42218888 41.1923319,2.41681996 L48.5840536,9.80767681 L48.5840536,9.80767681 Z" id="Shape" fill="#393939"></path>
                            <path d="M3.8331481,41.1923077 L9.80769231,47.1657619 L1.96153846,49.0384615 L3.8331481,41.1923077 Z" id="Shape" fill="#393939"></path>
                            <path d="M9.80769231,4.90384615 L11.7692308,2.94230769" id="Shape" stroke="#393939" stroke-width="2"></path>
                            <path d="M11.7692308,9.80769231 L14.7115385,6.86538462" id="Shape" stroke="#393939" stroke-width="2"></path>
                            <path d="M16.6730769,11.7692308 L18.6346154,9.80769231" id="Shape" stroke="#393939" stroke-width="2"></path>
                            <path d="M23.5384615,18.6346154 L25.5,16.6730769" id="Shape" stroke="#393939" stroke-width="2"></path>
                            <path d="M18.6346154,16.6730769 L21.5769231,13.7307692" id="Shape" stroke="#393939" stroke-width="2"></path>
                            <path d="M33.3461538,28.4423077 L35.3076923,26.4807692" id="Shape" stroke="#393939" stroke-width="2"></path>
                            <path d="M35.3076923,33.3461538 L38.25,30.4038462" id="Shape" stroke="#393939" stroke-width="2"></path>
                            <path d="M40.2115385,35.3076923 L42.1730769,33.3461538" id="Shape" stroke="#393939" stroke-width="2"></path>
                            <path d="M46.0961538,42.1730769 L48.0576923,40.2115385" id="Shape" stroke="#393939" stroke-width="2"></path>
                            <path d="M42.1730769,39.2307692 L45.1153846,36.2884615" id="Shape" stroke="#393939" stroke-width="2"></path>
                        </g>
                    </g>
                </g>
            </g>
        </g>
    </g>
</svg>