<?xml version="1.0" encoding="UTF-8" standalone="no"?>
<svg width="73px" height="71px" viewBox="0 0 73 71" version="1.1" xmlns="http://www.w3.org/2000/svg" xmlns:xlink="http://www.w3.org/1999/xlink" xmlns:sketch="http://www.bohemiancoding.com/sketch/ns">
    <!-- Generator: Sketch 3.1.1 (8761) - http://www.bohemiancoding.com/sketch -->
    <title>Phone</title>
    <desc>Created with Sketch.</desc>
    <defs>
        <rect id="path-1" x="0" y="0" width="320" height="72"></rect>
    </defs>
    <g id="Welcome" stroke="none" stroke-width="1" fill="none" fill-rule="evenodd" sketch:type="MSPage">
        <g id="Index--Mobile" sketch:type="MSArtboardGroup" transform="translate(-159.000000, -204.000000)">
            <g id="Hero-Unit" sketch:type="MSLayerGroup" transform="translate(0.000000, 76.000000)">
                <g id="Outlines" transform="translate(0.000000, 127.000000)">
                    <g id="Phone">
                        <mask id="mask-2" sketch:name="Mask" fill="white">
                            <use xlink:href="#path-1"></use>
                        </mask>
                        <use id="Mask" sketch:type="MSShapeGroup" xlink:href="#path-1"></use>
                        <g id="Group" mask="url(#mask-2)" fill="#FFFFFF" sketch:type="MSShapeGroup">
                            <g transform="translate(159.000000, 2.000000)" id="Shape">
                                <path d="M69.7067462,4.09268228 C67.6430608,2.03163098 64.899759,0.896491087 61.9818492,0.896491087 L61.0534918,0.896491087 L61.0534918,0.426103263 L61.0534918,0.147821826 L60.8325977,-0.0217059454 L60.4651307,-0.30393864 L60.3131014,-0.42059482 L60.1213713,-0.42059482 L49.5052826,-0.42059482 L49.3553229,-0.42059482 L49.2251196,-0.346085389 L48.7315887,-0.0638526944 L48.4470981,0.0987133376 L48.4470981,0.426103263 L48.4470981,0.896491087 L12.1457645,0.896491087 C9.22785473,0.896491087 6.48455294,2.03163098 4.42086748,4.09268228 C2.35699386,6.15410988 1.22034872,8.8951538 1.22034872,11.8109938 L1.22034872,21.3113227 L0.939244958,21.3113227 L0.705556287,21.3113227 L0.540167928,21.476711 L0.257935234,21.7589437 L0.092546875,21.9245202 L0.092546875,22.1580207 L0.092546875,28.4610294 L0.092546875,28.6949063 L0.257935234,28.8602946 L0.540167928,29.1425273 L0.705556287,29.3079157 L0.939244958,29.3079157 L1.22016057,29.3079157 L1.22016057,35.5170349 L0.939244958,35.5170349 L0.705556287,35.5170349 L0.540167928,35.6822351 L0.257935234,35.9644678 L0.092546875,36.1298562 L0.092546875,36.3635449 L0.092546875,41.0674231 L0.092546875,41.3011118 L0.257935234,41.4665001 L0.540167928,41.7487328 L0.705556287,41.9143094 L0.939244958,41.9143094 L1.22016057,41.9143094 L1.22016057,48.0293511 L0.939244958,48.0293511 L0.705556287,48.0293511 L0.540167928,48.1947394 L0.257935234,48.4769721 L0.092546875,48.6423605 L0.092546875,48.8760492 L0.092546875,53.5799274 L0.092546875,53.8136161 L0.257935234,53.9790044 L0.540167928,54.2612371 L0.705556287,54.4266255 L0.939244958,54.4266255 L1.22016057,54.4266255 L1.22016057,140.50628 C1.22016057,143.421744 2.35680571,146.162976 4.42086748,148.224592 C6.48436478,150.285455 9.22785473,151.420595 12.1457645,151.420595 L61.9818492,151.420595 C64.899759,151.420595 67.6432489,150.285643 69.7067462,148.224592 C71.770808,146.162976 72.9074531,143.421932 72.9074531,140.50628 L72.9074531,11.8109938 C72.9074531,8.8951538 71.770808,6.15410988 69.7067462,4.09268228 L69.7067462,4.09268228 Z M49.0117517,0.426103263 L49.5054707,0.143682414 L60.1215594,0.143682414 L60.4892146,0.426103263 L60.4892146,0.896491087 L49.0117517,0.896491087 L49.0117517,0.426103263 L49.0117517,0.426103263 Z M4.95259387,4.62516129 C6.87422221,2.70597897 9.42880441,1.64911161 12.1457645,1.64911161 L61.9818492,1.64911161 C64.6988093,1.64911161 67.2533915,2.70597897 69.1748317,4.62534945 C71.09646,6.54453177 72.1546445,9.09666795 72.1546445,11.811182 L72.1546445,14.1614277 L71.4020239,14.1614277 L71.4020239,11.8044084 C71.4020239,6.60756374 67.1843385,2.3951467 61.9818492,2.3951467 L12.1457645,2.3951467 C6.94308699,2.3951467 2.72558976,6.60756374 2.72558976,11.8044084 L2.72558976,14.1614277 L1.97296924,14.1614277 L1.97296924,11.8109938 C1.97296924,9.09647979 3.03115369,6.54434361 4.95259387,4.62516129 L4.95259387,4.62516129 Z M72.1548326,15.2903585 L72.1548326,137.120805 L71.4022121,137.120805 L71.4022121,15.2903585 L72.1548326,15.2903585 L72.1548326,15.2903585 Z M70.6495916,11.8044084 L70.6495916,140.499507 C70.6495916,145.272814 66.7611777,149.15596 61.9820374,149.15596 L12.1457645,149.15596 C7.36662419,149.15596 3.47821028,145.272626 3.47821028,140.499507 L3.47821028,11.8044084 C3.47821028,7.03110094 7.36662419,3.14776721 12.1457645,3.14776721 L61.9818492,3.14776721 C66.7611777,3.14757906 70.6495916,7.03110094 70.6495916,11.8044084 L70.6495916,11.8044084 Z M1.97296924,54.4266255 L1.97296924,53.8621601 L1.97296924,48.5938165 L1.97296924,48.0293511 L1.97296924,41.9143094 L1.97296924,41.349844 L1.97296924,36.0815003 L1.97296924,35.5170349 L1.97296924,29.3079157 L1.97296924,28.7434503 L1.97296924,21.875788 L1.97296924,21.3113227 L1.97296924,15.2903585 L2.72558976,15.2903585 L2.72558976,137.120805 L1.97296924,137.120805 L1.97296924,54.4266255 L1.97296924,54.4266255 Z M0.939244958,28.7434503 L0.657012264,28.4610294 L0.657012264,22.1580207 C0.732838781,22.0820061 0.814121797,22.0009112 0.939244958,21.875788 L1.22016057,21.875788 L1.22016057,28.7434503 L0.939244958,28.7434503 L0.939244958,28.7434503 Z M0.939244958,41.349844 L0.657012264,41.0676113 L0.657012264,36.363733 C0.732838781,36.2879065 0.814121797,36.2068117 0.939244958,36.0815003 L1.22016057,36.0815003 L1.22016057,41.349844 L0.939244958,41.349844 L0.939244958,41.349844 Z M0.939244958,53.8621601 L0.657012264,53.5799274 L0.657012264,48.8760492 C0.732838781,48.8000345 0.814121797,48.7189396 0.939244958,48.5938165 L1.22016057,48.5938165 L1.22016057,53.8621601 L0.939244958,53.8621601 L0.939244958,53.8621601 Z M69.1750198,147.692113 C67.2535796,149.611107 64.6989974,150.667974 61.9818492,150.667974 L12.1457645,150.667974 C9.42880441,150.667974 6.87403406,149.611107 4.95278203,147.692113 C3.03115369,145.772554 1.97296924,143.220606 1.97296924,140.50628 L1.97296924,138.249736 L2.72558976,138.249736 L2.72558976,140.499695 C2.72558976,145.696351 6.94308699,149.908957 12.1457645,149.908957 L61.9818492,149.908957 C67.1843385,149.908957 71.4020239,145.696351 71.4020239,140.499695 L71.4020239,138.249736 L72.1546445,138.249736 L72.1546445,140.50628 C72.1548326,143.220418 71.0966482,145.772554 69.1750198,147.692113 L69.1750198,147.692113 Z"></path>
                                <path d="M31.7955573,15.7607463 L42.1440894,15.7607463 C42.9236161,15.7607463 43.5552529,15.1291096 43.5552529,14.3495829 C43.5552529,13.5702443 42.9236161,12.9384194 42.1440894,12.9384194 L31.7955573,12.9384194 C31.0160306,12.9384194 30.3843938,13.5702443 30.3843938,14.3495829 C30.3843938,15.1289214 31.0160306,15.7607463 31.7955573,15.7607463 L31.7955573,15.7607463 Z M31.7955573,13.6910399 L42.1440894,13.6910399 C42.5072288,13.6910399 42.8026324,13.9864435 42.8026324,14.3495829 C42.8026324,14.7127223 42.5072288,15.0081258 42.1440894,15.0081258 L31.7955573,15.0081258 C31.4324179,15.0081258 31.1370143,14.7127223 31.1370143,14.3495829 C31.1370143,13.9864435 31.4324179,13.6910399 31.7955573,13.6910399 L31.7955573,13.6910399 Z"></path>
                                <path d="M67.0746441,21.9698656 L6.86500261,21.9698656 C6.44936793,21.9698656 6.11238209,22.3068514 6.11238209,22.7224861 L6.11238209,129.5946 C6.11238209,130.010234 6.44936793,130.34722 6.86500261,130.34722 L67.0746441,130.34722 C67.4902788,130.34722 67.8272646,130.010046 67.8272646,129.5946 L67.8272646,22.7224861 C67.8272646,22.3068514 67.4902788,21.9698656 67.0746441,21.9698656 L67.0746441,21.9698656 Z M67.0746441,129.5946 L6.86500261,129.5946 L6.86500261,22.7224861 L67.0746441,22.7224861 L67.0746441,129.5946 L67.0746441,129.5946 Z"></path>
                                <path d="M37.0639009,10.1166569 C37.945784,10.1166569 38.6632195,9.3992214 38.6632195,8.5173383 C38.6632195,7.63564337 37.945784,6.9180197 37.0639009,6.9180197 C36.1820178,6.9180197 35.4645823,7.63564337 35.4645823,8.5173383 C35.4645823,9.3992214 36.1820178,10.1166569 37.0639009,10.1166569 L37.0639009,10.1166569 Z M37.0639009,7.48248509 C37.6343873,7.48248509 38.0987541,7.94685195 38.0987541,8.5173383 C38.0987541,9.08782466 37.6343873,9.55219152 37.0639009,9.55219152 C36.4934146,9.55219152 36.0290477,9.08782466 36.0290477,8.5173383 C36.0290477,7.94685195 36.4932264,7.48248509 37.0639009,7.48248509 L37.0639009,7.48248509 Z"></path>
                                <path d="M37.0639009,9.05696722 C37.3754858,9.05696722 37.6283663,8.80427488 37.6283663,8.49250183 C37.6283663,8.18091693 37.3754858,7.92803644 37.0639009,7.92803644 C36.752316,7.92803644 36.4994355,8.18091693 36.4994355,8.49250183 C36.4994355,8.80427488 36.7521279,9.05696722 37.0639009,9.05696722 L37.0639009,9.05696722 Z"></path>
                            </g>
                        </g>
                    </g>
                </g>
            </g>
        </g>
    </g>
</svg>