<?xml version="1.0" encoding="UTF-8" standalone="no"?>
<svg width="96px" height="201px" viewBox="0 0 96 201" version="1.1" xmlns="http://www.w3.org/2000/svg" xmlns:xlink="http://www.w3.org/1999/xlink" xmlns:sketch="http://www.bohemiancoding.com/sketch/ns">
    <!-- Generator: Sketch 3.1.1 (8761) - http://www.bohemiancoding.com/sketch -->
    <title>Phone</title>
    <desc>Created with Sketch.</desc>
    <defs></defs>
    <g id="Welcome" stroke="none" stroke-width="1" fill="none" fill-rule="evenodd" sketch:type="MSPage">
        <g id="Portfolio-Single--Mobile" sketch:type="MSArtboardGroup" transform="translate(-196.000000, -512.000000)" fill="#4A4A4A">
            <g id="Body" sketch:type="MSLayerGroup" transform="translate(0.000000, 481.000000)">
                <g id="Inline-Phone" transform="translate(196.000000, 31.000000)" sketch:type="MSShapeGroup">
                    <g id="Phone">
                        <path d="M91.6691457,6.39366737 C88.955258,3.67744746 85.3476282,2.18146839 81.510377,2.18146839 L80.2895235,2.18146839 L80.2895235,1.56155331 L80.2895235,1.19481155 L79.9990326,0.971394151 L79.5157883,0.599445104 L79.3158593,0.445706164 L79.0637211,0.445706164 L65.1028373,0.445706164 L64.9056301,0.445706164 L64.7344038,0.543900713 L64.0853769,0.91584976 L63.7112523,1.13009241 L63.7112523,1.56155331 L63.7112523,2.18146839 L15.9725122,2.18146839 C12.135261,2.18146839 8.52763126,3.67744746 5.81374353,6.39366737 C3.09960836,9.11038321 1.60484216,12.7227524 1.60484216,16.565482 L1.60484216,29.0857828 L1.23517145,29.0857828 L0.927854844,29.0857828 L0.710357824,29.303745 L0.339202499,29.675694 L0.121705479,29.8939041 L0.121705479,30.20163 L0.121705479,38.5082441 L0.121705479,38.8164659 L0.339202499,39.034428 L0.710357824,39.406377 L0.927854844,39.6243392 L1.23517145,39.6243392 L1.60459472,39.6243392 L1.60459472,47.8072182 L1.23517145,47.8072182 L0.927854844,47.8072182 L0.710357824,48.0249324 L0.339202499,48.3968815 L0.121705479,48.6148436 L0.121705479,48.9228174 L0.121705479,55.1219682 L0.121705479,55.429942 L0.339202499,55.6479042 L0.710357824,56.0198532 L0.927854844,56.2380633 L1.23517145,56.2380633 L1.60459472,56.2380633 L1.60459472,64.2969594 L1.23517145,64.2969594 L0.927854844,64.2969594 L0.710357824,64.5149215 L0.339202499,64.8868705 L0.121705479,65.1048327 L0.121705479,65.4128065 L0.121705479,71.6119573 L0.121705479,71.9199311 L0.339202499,72.1378932 L0.710357824,72.5098423 L0.927854844,72.7278044 L1.23517145,72.7278044 L1.60459472,72.7278044 L1.60459472,186.170528 C1.60459472,190.012762 3.09936093,193.625379 5.81374353,196.342343 C8.52738383,199.058315 12.135261,200.554294 15.9725122,200.554294 L81.510377,200.554294 C85.3476282,200.554294 88.9555054,199.058563 91.6691457,196.342343 C94.3835283,193.625379 95.8782945,190.01301 95.8782945,186.170528 L95.8782945,16.565482 C95.8782945,12.7227524 94.3835283,9.11038321 91.6691457,6.39366737 L91.6691457,6.39366737 Z M64.4538104,1.56155331 L65.1030848,1.18935629 L79.0639686,1.18935629 L79.5474603,1.56155331 L79.5474603,2.18146839 L64.4538104,2.18146839 L64.4538104,1.56155331 L64.4538104,1.56155331 Z M6.51300016,7.09541124 C9.04007305,4.56615771 12.3995236,3.17333251 15.9725122,3.17333251 L81.510377,3.17333251 C85.0833656,3.17333251 88.4428162,4.56615771 90.9696416,7.09565921 C93.4967145,9.62491273 94.8882996,12.988324 94.8882996,16.5657299 L94.8882996,19.6630736 L93.898552,19.6630736 L93.898552,16.5568031 C93.898552,9.70798135 88.3520069,4.15651783 81.510377,4.15651783 L15.9725122,4.15651783 C9.13063495,4.15651783 3.58433722,9.70798135 3.58433722,16.5568031 L3.58433722,19.6630736 L2.59458969,19.6630736 L2.59458969,16.565482 C2.59458969,12.988076 3.98617472,9.62466476 6.51300016,7.09541124 L6.51300016,7.09541124 Z M94.888547,21.1508698 L94.888547,181.708875 L93.8987995,181.708875 L93.8987995,21.1508698 L94.888547,21.1508698 L94.888547,21.1508698 Z M92.9090519,16.5568031 L92.9090519,186.161601 C92.9090519,192.452252 87.7955213,197.569775 81.5106245,197.569775 L15.9725122,197.569775 C9.68761537,197.569775 4.57408475,192.452004 4.57408475,186.161601 L4.57408475,16.5568031 C4.57408475,10.2661529 9.68761537,5.14838196 15.9725122,5.14838196 L81.510377,5.14838196 C87.7955213,5.14813399 92.9090519,10.2661529 92.9090519,16.5568031 L92.9090519,16.5568031 Z M2.59458969,72.7278044 L2.59458969,71.9839063 L2.59458969,65.0408575 L2.59458969,64.2969594 L2.59458969,56.2380633 L2.59458969,55.4941652 L2.59458969,48.5511163 L2.59458969,47.8072182 L2.59458969,39.6243392 L2.59458969,38.8804411 L2.59458969,29.8296809 L2.59458969,29.0857828 L2.59458969,21.1508698 L3.58433722,21.1508698 L3.58433722,181.708875 L2.59458969,181.708875 L2.59458969,72.7278044 L2.59458969,72.7278044 Z M1.23517145,38.8804411 L0.864016128,38.5082441 L0.864016128,30.20163 C0.963733192,30.1014517 1.07062593,29.9945783 1.23517145,29.8296809 L1.60459472,29.8296809 L1.60459472,38.8804411 L1.23517145,38.8804411 L1.23517145,38.8804411 Z M1.23517145,55.4941652 L0.864016128,55.1222162 L0.864016128,48.9230654 C0.963733192,48.8231351 1.07062593,48.7162617 1.23517145,48.5511163 L1.60459472,48.5511163 L1.60459472,55.4941652 L1.23517145,55.4941652 L1.23517145,55.4941652 Z M1.23517145,71.9839063 L0.864016128,71.6119573 L0.864016128,65.4128065 C0.963733192,65.3126282 1.07062593,65.2057549 1.23517145,65.0408575 L1.60459472,65.0408575 L1.60459472,71.9839063 L1.23517145,71.9839063 L1.23517145,71.9839063 Z M90.9698891,195.640599 C88.4430636,198.169605 85.0836131,199.56243 81.510377,199.56243 L15.9725122,199.56243 C12.3995236,199.56243 9.03982561,198.169605 6.5132476,195.640599 C3.98617472,193.110849 2.59458969,189.747686 2.59458969,186.170528 L2.59458969,183.196672 L3.58433722,183.196672 L3.58433722,186.161849 C3.58433722,193.010423 9.13063495,198.562135 15.9725122,198.562135 L81.510377,198.562135 C88.3520069,198.562135 93.898552,193.010423 93.898552,186.161849 L93.898552,183.196672 L94.8882996,183.196672 L94.8882996,186.170528 C94.888547,189.747438 93.496962,193.110849 90.9698891,195.640599 L90.9698891,195.640599 Z" id="Shape"></path>
                        <path d="M41.8133356,21.7707849 L55.4223642,21.7707849 C56.4474952,21.7707849 57.2781408,20.9383629 57.2781408,19.9110397 C57.2781408,18.8839644 56.4474952,18.0512944 55.4223642,18.0512944 L41.8133356,18.0512944 C40.7882046,18.0512944 39.957559,18.8839644 39.957559,19.9110397 C39.957559,20.938115 40.7882046,21.7707849 41.8133356,21.7707849 L41.8133356,21.7707849 Z M41.8133356,19.0431585 L55.4223642,19.0431585 C55.8999174,19.0431585 56.2883933,19.4324652 56.2883933,19.9110397 C56.2883933,20.3896141 55.8999174,20.7789208 55.4223642,20.7789208 L41.8133356,20.7789208 C41.3357824,20.7789208 40.9473065,20.3896141 40.9473065,19.9110397 C40.9473065,19.4324652 41.3357824,19.0431585 41.8133356,19.0431585 L41.8133356,19.0431585 Z" id="Shape"></path>
                        <path d="M88.2077512,29.9536639 L9.02794864,29.9536639 C8.48136057,29.9536639 8.03820111,30.3977711 8.03820111,30.9455281 L8.03820111,171.790234 C8.03820111,172.337991 8.48136057,172.782098 9.02794864,172.782098 L88.2077512,172.782098 C88.7543392,172.782098 89.1974987,172.337743 89.1974987,171.790234 L89.1974987,30.9455281 C89.1974987,30.3977711 88.7543392,29.9536639 88.2077512,29.9536639 L88.2077512,29.9536639 Z M88.2077512,171.790234 L9.02794864,171.790234 L9.02794864,30.9455281 L88.2077512,30.9455281 L88.2077512,171.790234 L88.2077512,171.790234 Z" id="Shape"></path>
                        <path d="M48.6797091,177.245487 C44.0674856,177.245487 40.3287143,180.992502 40.3287143,185.61434 C40.3287143,190.236427 44.0674856,193.983194 48.6797091,193.983194 C53.2919326,193.983194 57.0307039,190.236675 57.0307039,185.61434 C57.0307039,180.992502 53.2916852,177.245487 48.6797091,177.245487 L48.6797091,177.245487 Z M48.6797091,192.99133 C44.6207545,192.99133 41.3184619,189.682223 41.3184619,185.61434 C41.3184619,181.546458 44.6205071,178.237351 48.6797091,178.237351 C52.7389112,178.237351 56.0409564,181.546706 56.0409564,185.61434 C56.0409564,189.681975 52.7386637,192.99133 48.6797091,192.99133 L48.6797091,192.99133 Z" id="Shape"></path>
                        <path d="M48.7415683,14.3325478 C49.901305,14.3325478 50.8447818,13.3870534 50.8447818,12.2248366 C50.8447818,11.0628677 49.901305,10.1171253 48.7415683,10.1171253 C47.5818317,10.1171253 46.6383548,11.0628677 46.6383548,12.2248366 C46.6383548,13.3870534 47.5818317,14.3325478 48.7415683,14.3325478 L48.7415683,14.3325478 Z M48.7415683,10.8610234 C49.491797,10.8610234 50.1024712,11.4730036 50.1024712,12.2248366 C50.1024712,12.9766696 49.491797,13.5886497 48.7415683,13.5886497 C47.9913397,13.5886497 47.3806655,12.9766696 47.3806655,12.2248366 C47.3806655,11.4730036 47.9910923,10.8610234 48.7415683,10.8610234 L48.7415683,10.8610234 Z" id="Shape"></path>
                        <path d="M48.7415683,12.9360032 C49.1513238,12.9360032 49.483879,12.6029848 49.483879,12.1921051 C49.483879,11.7814733 49.1513238,11.448207 48.7415683,11.448207 C48.3318129,11.448207 47.9992577,11.7814733 47.9992577,12.1921051 C47.9992577,12.6029848 48.3315654,12.9360032 48.7415683,12.9360032 L48.7415683,12.9360032 Z" id="Shape"></path>
                    </g>
                </g>
            </g>
        </g>
    </g>
</svg>